<svg xmlns="http://www.w3.org/2000/svg" xmlns:xlink="http://www.w3.org/1999/xlink" width="500" zoomAndPan="magnify" viewBox="0 0 375 374.999991" height="500" preserveAspectRatio="xMidYMid meet" version="1.2"><defs><clipPath id="cf81b2c15d"><path d="M 191 101.351562 L 243 101.351562 L 243 209 L 191 209 Z M 191 101.351562 "/></clipPath><clipPath id="52655e3834"><path d="M 203 114 L 262.5 114 L 262.5 216.851562 L 203 216.851562 Z M 203 114 "/></clipPath><clipPath id="c41b5a2643"><path d="M 132 101.351562 L 184 101.351562 L 184 209 L 132 209 Z M 132 101.351562 "/></clipPath><clipPath id="7d02201da9"><path d="M 112.5 114 L 172 114 L 172 216.851562 L 112.5 216.851562 Z M 112.5 114 "/></clipPath></defs><g id="7e168cf379"><g clip-rule="nonzero" clip-path="url(#cf81b2c15d)"><path style=" stroke:none;fill-rule:nonzero;fill:#d4c4c0;fill-opacity:1;" d="M 191.195312 122.113281 C 191.195312 122.113281 203.789062 108.847656 212.273438 105.390625 C 220.753906 101.929688 242.09375 101.367188 242.09375 101.367188 L 242.09375 187.527344 C 242.09375 187.527344 222.699219 188.515625 214.214844 191.972656 C 205.734375 195.429688 191.195312 208.273438 191.195312 208.273438 Z M 191.195312 122.113281 "/></g><path style=" stroke:none;fill-rule:nonzero;fill:#9d8782;fill-opacity:1;" d="M 252.78125 107.714844 C 252.78125 107.714844 249.492188 107.808594 245.007812 108.121094 L 245.007812 190.914062 C 245.007812 190.914062 225.613281 191.898438 217.128906 195.355469 C 212.714844 197.15625 202.300781 203.1875 197.511719 206.9375 L 195.082031 214.621094 C 195.082031 214.621094 211.5625 205.589844 220.042969 202.132812 C 228.527344 198.675781 252.78125 193.875 252.78125 193.875 Z M 252.78125 107.714844 "/><g clip-rule="nonzero" clip-path="url(#52655e3834)"><path style=" stroke:none;fill-rule:nonzero;fill:#785d56;fill-opacity:1;" d="M 262.496094 114.910156 C 262.496094 114.910156 260.117188 114.980469 256.667969 115.191406 L 256.667969 197.265625 C 256.667969 197.265625 237.273438 198.25 228.789062 201.707031 C 223.75 203.761719 212.222656 207.847656 207.226562 211.867188 L 203.339844 216.734375 C 203.339844 216.734375 226.136719 208.976562 234.617188 205.519531 C 243.101562 202.0625 262.496094 201.074219 262.496094 201.074219 Z M 262.496094 114.910156 "/></g><g clip-rule="nonzero" clip-path="url(#c41b5a2643)"><path style=" stroke:none;fill-rule:nonzero;fill:#d4c4c0;fill-opacity:1;" d="M 183.804688 122.113281 C 183.804688 122.113281 171.210938 108.847656 162.726562 105.390625 C 154.246094 101.929688 132.90625 101.367188 132.90625 101.367188 L 132.90625 187.527344 C 132.90625 187.527344 152.300781 188.515625 160.785156 191.972656 C 169.265625 195.429688 183.804688 208.273438 183.804688 208.273438 Z M 183.804688 122.113281 "/></g><path style=" stroke:none;fill-rule:nonzero;fill:#9d8782;fill-opacity:1;" d="M 122.21875 107.714844 C 122.21875 107.714844 125.503906 107.808594 129.988281 108.121094 L 129.988281 190.914062 C 129.988281 190.914062 149.386719 191.898438 157.867188 195.355469 C 162.285156 197.15625 172.695312 203.1875 177.488281 206.9375 L 179.917969 214.621094 C 179.917969 214.621094 163.4375 205.589844 154.953125 202.132812 C 146.472656 198.675781 122.21875 193.878906 122.21875 193.878906 Z M 122.21875 107.714844 "/><g clip-rule="nonzero" clip-path="url(#7d02201da9)"><path style=" stroke:none;fill-rule:nonzero;fill:#785d56;fill-opacity:1;" d="M 112.503906 114.910156 C 112.503906 114.910156 114.882812 114.980469 118.332031 115.191406 L 118.332031 197.265625 C 118.332031 197.265625 137.726562 198.25 146.210938 201.707031 C 151.25 203.761719 162.777344 207.847656 167.773438 211.867188 L 171.660156 216.734375 C 171.660156 216.734375 148.863281 208.976562 140.378906 205.519531 C 131.898438 202.0625 112.503906 201.074219 112.503906 201.074219 Z M 112.503906 114.910156 "/></g><g style="fill:#785d56;fill-opacity:1;"><g transform="translate(132.249242, 267.962566)"><path style="stroke:none" d="M 7.5625 0 L 6.5 0 L 5.734375 -2.296875 L 2.15625 -2.296875 L 1.375 0 L 0.328125 0 L 3.265625 -8.40625 L 4.625 -8.40625 Z M 3.859375 -7.375 L 2.421875 -3.125 L 5.453125 -3.125 L 4.015625 -7.375 Z M 3.859375 -7.375 "/></g></g><g style="fill:#785d56;fill-opacity:1;"><g transform="translate(141.283207, 267.962566)"><path style="stroke:none" d="M 4.421875 0.125 C 3.710938 0.125 3.085938 -0.0351562 2.546875 -0.359375 C 2.015625 -0.679688 1.597656 -1.164062 1.296875 -1.8125 C 0.992188 -2.457031 0.84375 -3.253906 0.84375 -4.203125 C 0.84375 -5.140625 1.003906 -5.929688 1.328125 -6.578125 C 1.648438 -7.222656 2.097656 -7.707031 2.671875 -8.03125 C 3.242188 -8.351562 3.90625 -8.515625 4.65625 -8.515625 C 5.457031 -8.515625 6.117188 -8.367188 6.640625 -8.078125 C 7.160156 -7.796875 7.523438 -7.367188 7.734375 -6.796875 L 7.09375 -6.40625 L 6.953125 -6.40625 C 6.734375 -6.84375 6.4375 -7.15625 6.0625 -7.34375 C 5.695312 -7.539062 5.226562 -7.640625 4.65625 -7.640625 C 2.8125 -7.640625 1.890625 -6.492188 1.890625 -4.203125 C 1.890625 -3.003906 2.117188 -2.128906 2.578125 -1.578125 C 3.046875 -1.035156 3.695312 -0.765625 4.53125 -0.765625 C 5.300781 -0.765625 5.875 -0.9375 6.25 -1.28125 C 6.632812 -1.632812 6.828125 -2.1875 6.828125 -2.9375 L 6.828125 -3.6875 L 4.4375 -3.6875 L 4.4375 -4.46875 L 7.796875 -4.46875 L 7.796875 0 L 6.875 0 L 6.875 -1.125 L 6.75 -1.15625 C 6.53125 -0.71875 6.222656 -0.394531 5.828125 -0.1875 C 5.429688 0.0195312 4.960938 0.125 4.421875 0.125 Z M 4.421875 0.125 "/></g></g><g style="fill:#785d56;fill-opacity:1;"><g transform="translate(151.155829, 267.962566)"><path style="stroke:none" d="M 2.25 -3.953125 L 2.25 -0.8125 L 6.53125 -0.8125 L 6.53125 0 L 1.265625 0 L 1.265625 -8.40625 L 6.453125 -8.40625 L 6.453125 -7.578125 L 2.25 -7.578125 L 2.25 -4.78125 L 5.953125 -4.78125 L 5.953125 -3.953125 Z M 2.25 -3.953125 "/></g></g><g style="fill:#785d56;fill-opacity:1;"><g transform="translate(159.39135, 267.962566)"><path style="stroke:none" d="M 2.234375 0 L 1.265625 0 L 1.265625 -8.40625 L 2.484375 -8.40625 L 6.578125 -1.984375 L 6.71875 -2 L 6.71875 -8.40625 L 7.6875 -8.40625 L 7.6875 0 L 6.640625 0 L 2.375 -6.859375 L 2.234375 -6.84375 Z M 2.234375 0 "/></g></g><g style="fill:#785d56;fill-opacity:1;"><g transform="translate(169.488002, 267.962566)"><path style="stroke:none" d="M 3.984375 -8.40625 C 4.835938 -8.40625 5.566406 -8.25 6.171875 -7.9375 C 6.785156 -7.632812 7.257812 -7.171875 7.59375 -6.546875 C 7.925781 -5.921875 8.09375 -5.140625 8.09375 -4.203125 C 8.09375 -3.253906 7.925781 -2.46875 7.59375 -1.84375 C 7.257812 -1.21875 6.785156 -0.753906 6.171875 -0.453125 C 5.566406 -0.148438 4.835938 0 3.984375 0 L 1.265625 0 L 1.265625 -8.40625 Z M 3.890625 -0.84375 C 4.585938 -0.84375 5.164062 -0.953125 5.625 -1.171875 C 6.082031 -1.390625 6.429688 -1.742188 6.671875 -2.234375 C 6.910156 -2.722656 7.03125 -3.378906 7.03125 -4.203125 C 7.03125 -5.015625 6.910156 -5.664062 6.671875 -6.15625 C 6.429688 -6.65625 6.082031 -7.015625 5.625 -7.234375 C 5.164062 -7.453125 4.585938 -7.5625 3.890625 -7.5625 L 2.25 -7.5625 L 2.25 -0.84375 Z M 3.890625 -0.84375 "/></g></g><g style="fill:#785d56;fill-opacity:1;"><g transform="translate(179.555928, 267.962566)"><path style="stroke:none" d="M 7.5625 0 L 6.5 0 L 5.734375 -2.296875 L 2.15625 -2.296875 L 1.375 0 L 0.328125 0 L 3.265625 -8.40625 L 4.625 -8.40625 Z M 3.859375 -7.375 L 2.421875 -3.125 L 5.453125 -3.125 L 4.015625 -7.375 Z M 3.859375 -7.375 "/></g></g><g style="fill:#785d56;fill-opacity:1;"><g transform="translate(188.589893, 267.962566)"><path style="stroke:none" d=""/></g></g><g style="fill:#785d56;fill-opacity:1;"><g transform="translate(192.614891, 267.962566)"><path style="stroke:none" d="M 4.609375 0.125 C 3.878906 0.125 3.226562 -0.03125 2.65625 -0.34375 C 2.09375 -0.664062 1.648438 -1.144531 1.328125 -1.78125 C 1.003906 -2.425781 0.84375 -3.234375 0.84375 -4.203125 C 0.84375 -5.160156 1.003906 -5.960938 1.328125 -6.609375 C 1.648438 -7.253906 2.09375 -7.734375 2.65625 -8.046875 C 3.226562 -8.359375 3.878906 -8.515625 4.609375 -8.515625 C 5.335938 -8.515625 5.984375 -8.359375 6.546875 -8.046875 C 7.117188 -7.734375 7.566406 -7.253906 7.890625 -6.609375 C 8.210938 -5.960938 8.375 -5.160156 8.375 -4.203125 C 8.375 -3.234375 8.210938 -2.425781 7.890625 -1.78125 C 7.566406 -1.144531 7.117188 -0.664062 6.546875 -0.34375 C 5.984375 -0.03125 5.335938 0.125 4.609375 0.125 Z M 4.609375 -0.796875 C 5.484375 -0.796875 6.148438 -1.066406 6.609375 -1.609375 C 7.078125 -2.160156 7.3125 -3.023438 7.3125 -4.203125 C 7.3125 -5.378906 7.078125 -6.238281 6.609375 -6.78125 C 6.148438 -7.332031 5.484375 -7.609375 4.609375 -7.609375 C 2.796875 -7.609375 1.890625 -6.472656 1.890625 -4.203125 C 1.890625 -1.929688 2.796875 -0.796875 4.609375 -0.796875 Z M 4.609375 -0.796875 "/></g></g><g style="fill:#785d56;fill-opacity:1;"><g transform="translate(202.970029, 267.962566)"><path style="stroke:none" d="M 2.234375 0 L 1.265625 0 L 1.265625 -8.40625 L 2.484375 -8.40625 L 6.578125 -1.984375 L 6.71875 -2 L 6.71875 -8.40625 L 7.6875 -8.40625 L 7.6875 0 L 6.640625 0 L 2.375 -6.859375 L 2.234375 -6.84375 Z M 2.234375 0 "/></g></g><g style="fill:#785d56;fill-opacity:1;"><g transform="translate(213.06668, 267.962566)"><path style="stroke:none" d="M 2.25 -8.40625 L 2.25 -0.8125 L 6.296875 -0.8125 L 6.296875 0 L 1.265625 0 L 1.265625 -8.40625 Z M 2.25 -8.40625 "/></g></g><g style="fill:#785d56;fill-opacity:1;"><g transform="translate(220.86564, 267.962566)"><path style="stroke:none" d="M 2.25 0 L 1.265625 0 L 1.265625 -8.40625 L 2.25 -8.40625 Z M 2.25 0 "/></g></g><g style="fill:#785d56;fill-opacity:1;"><g transform="translate(225.539741, 267.962566)"><path style="stroke:none" d="M 2.234375 0 L 1.265625 0 L 1.265625 -8.40625 L 2.484375 -8.40625 L 6.578125 -1.984375 L 6.71875 -2 L 6.71875 -8.40625 L 7.6875 -8.40625 L 7.6875 0 L 6.640625 0 L 2.375 -6.859375 L 2.234375 -6.84375 Z M 2.234375 0 "/></g></g><g style="fill:#785d56;fill-opacity:1;"><g transform="translate(235.636392, 267.962566)"><path style="stroke:none" d="M 2.25 -3.953125 L 2.25 -0.8125 L 6.53125 -0.8125 L 6.53125 0 L 1.265625 0 L 1.265625 -8.40625 L 6.453125 -8.40625 L 6.453125 -7.578125 L 2.25 -7.578125 L 2.25 -4.78125 L 5.953125 -4.78125 L 5.953125 -3.953125 Z M 2.25 -3.953125 "/></g></g><g style="fill:#785d56;fill-opacity:1;"><g transform="translate(126.036656, 249.340281)"><path style="stroke:none" d="M 19.359375 -6.390625 L 19.5 -6.328125 L 17.890625 0 L 17.6875 0.71875 L 16.578125 0 L 0.484375 0 L 0.484375 -0.15625 C 1.160156 -0.40625 1.742188 -0.710938 2.234375 -1.078125 C 2.734375 -1.453125 2.984375 -1.929688 2.984375 -2.515625 L 2.984375 -21.0625 C 2.984375 -21.65625 2.734375 -22.066406 2.234375 -22.296875 C 1.742188 -22.523438 1.160156 -22.679688 0.484375 -22.765625 L 0.484375 -22.9375 L 9.140625 -22.9375 L 9.140625 -22.765625 C 8.304688 -22.679688 7.628906 -22.523438 7.109375 -22.296875 C 6.585938 -22.066406 6.328125 -21.65625 6.328125 -21.0625 L 6.328125 -0.53125 L 10.84375 -0.53125 C 12.351562 -0.53125 13.585938 -0.753906 14.546875 -1.203125 C 15.503906 -1.648438 16.34375 -2.304688 17.0625 -3.171875 C 17.789062 -4.046875 18.554688 -5.117188 19.359375 -6.390625 Z M 19.359375 -6.390625 "/></g></g><g style="fill:#785d56;fill-opacity:1;"><g transform="translate(146.017972, 249.340281)"><path style="stroke:none" d="M 0.484375 0 L 0.484375 -0.15625 C 1.160156 -0.25 1.742188 -0.410156 2.234375 -0.640625 C 2.734375 -0.867188 2.984375 -1.28125 2.984375 -1.875 L 2.984375 -21.0625 C 2.984375 -21.65625 2.734375 -22.066406 2.234375 -22.296875 C 1.742188 -22.523438 1.160156 -22.679688 0.484375 -22.765625 L 0.484375 -22.9375 L 8.8125 -22.9375 L 8.8125 -22.765625 C 8.132812 -22.679688 7.550781 -22.523438 7.0625 -22.296875 C 6.570312 -22.066406 6.328125 -21.65625 6.328125 -21.0625 L 6.328125 -1.875 C 6.328125 -1.28125 6.570312 -0.867188 7.0625 -0.640625 C 7.550781 -0.410156 8.132812 -0.25 8.8125 -0.15625 L 8.8125 0 Z M 0.484375 0 "/></g></g><g style="fill:#785d56;fill-opacity:1;"><g transform="translate(155.320748, 249.340281)"><path style="stroke:none" d="M 11.234375 -13.078125 C 12.804688 -12.722656 14.082031 -12.28125 15.0625 -11.75 C 16.050781 -11.226562 16.800781 -10.660156 17.3125 -10.046875 C 17.832031 -9.441406 18.1875 -8.820312 18.375 -8.1875 C 18.570312 -7.550781 18.671875 -6.953125 18.671875 -6.390625 C 18.671875 -5.160156 18.335938 -4.019531 17.671875 -2.96875 C 17.003906 -1.925781 16.015625 -1.09375 14.703125 -0.46875 C 13.398438 0.144531 11.785156 0.453125 9.859375 0.453125 C 7.941406 0.453125 6.257812 0.15625 4.8125 -0.4375 C 3.375 -1.039062 2.207031 -1.769531 1.3125 -2.625 L 4.15625 -7.171875 C 4.007812 -5.710938 4.257812 -4.453125 4.90625 -3.390625 C 5.5625 -2.328125 6.46875 -1.515625 7.625 -0.953125 C 8.789062 -0.398438 10.015625 -0.125 11.296875 -0.125 C 12.566406 -0.125 13.546875 -0.363281 14.234375 -0.84375 C 14.921875 -1.332031 15.398438 -1.9375 15.671875 -2.65625 C 15.953125 -3.375 16.09375 -4.082031 16.09375 -4.78125 C 16.09375 -5.894531 15.828125 -6.765625 15.296875 -7.390625 C 14.773438 -8.015625 14.039062 -8.507812 13.09375 -8.875 C 12.144531 -9.25 11.015625 -9.585938 9.703125 -9.890625 C 7.648438 -10.398438 6.0625 -11.046875 4.9375 -11.828125 C 3.8125 -12.617188 3.035156 -13.476562 2.609375 -14.40625 C 2.179688 -15.332031 1.96875 -16.234375 1.96875 -17.109375 C 1.96875 -19.003906 2.710938 -20.523438 4.203125 -21.671875 C 5.703125 -22.816406 7.742188 -23.390625 10.328125 -23.390625 C 12.203125 -23.390625 13.773438 -23.097656 15.046875 -22.515625 C 16.328125 -21.941406 17.40625 -21.238281 18.28125 -20.40625 L 15.359375 -15.796875 C 15.535156 -17.273438 15.328125 -18.539062 14.734375 -19.59375 C 14.148438 -20.644531 13.328125 -21.445312 12.265625 -22 C 11.210938 -22.5625 10.070312 -22.84375 8.84375 -22.84375 C 7.820312 -22.84375 7 -22.648438 6.375 -22.265625 C 5.75 -21.878906 5.300781 -21.375 5.03125 -20.75 C 4.757812 -20.132812 4.625 -19.453125 4.625 -18.703125 C 4.625 -17.460938 4.929688 -16.472656 5.546875 -15.734375 C 6.171875 -15.003906 6.988281 -14.441406 8 -14.046875 C 9.019531 -13.660156 10.097656 -13.335938 11.234375 -13.078125 Z M 11.234375 -13.078125 "/></g></g><g style="fill:#785d56;fill-opacity:1;"><g transform="translate(175.302064, 249.340281)"><path style="stroke:none" d="M 22.28125 -22.9375 L 20.1875 -16.1875 L 20.046875 -16.1875 C 20.265625 -18.414062 19.929688 -20.015625 19.046875 -20.984375 C 18.160156 -21.953125 16.878906 -22.4375 15.203125 -22.4375 L 12.8125 -22.4375 L 12.8125 -2.1875 C 12.8125 -1.445312 13.082031 -0.945312 13.625 -0.6875 C 14.175781 -0.425781 14.953125 -0.25 15.953125 -0.15625 L 15.953125 0 L 6.328125 0 L 6.328125 -0.15625 C 7.328125 -0.25 8.097656 -0.425781 8.640625 -0.6875 C 9.191406 -0.945312 9.46875 -1.445312 9.46875 -2.1875 L 9.46875 -22.4375 L 8.71875 -22.4375 C 7.46875 -22.4375 6.421875 -22.316406 5.578125 -22.078125 C 4.742188 -21.835938 4.03125 -21.472656 3.4375 -20.984375 C 2.851562 -20.492188 2.328125 -19.847656 1.859375 -19.046875 C 1.398438 -18.253906 0.929688 -17.300781 0.453125 -16.1875 L 0.328125 -16.1875 L 1.40625 -22.9375 Z M 22.28125 -22.9375 "/></g></g><g style="fill:#785d56;fill-opacity:1;"><g transform="translate(197.903877, 249.340281)"><path style="stroke:none" d="M 13.828125 -23.390625 C 15.535156 -23.390625 17.128906 -23.113281 18.609375 -22.5625 C 20.097656 -22.019531 21.410156 -21.226562 22.546875 -20.1875 C 23.679688 -19.15625 24.5625 -17.898438 25.1875 -16.421875 C 25.820312 -14.953125 26.140625 -13.300781 26.140625 -11.46875 C 26.140625 -9.632812 25.820312 -7.976562 25.1875 -6.5 C 24.5625 -5.03125 23.679688 -3.773438 22.546875 -2.734375 C 21.410156 -1.691406 20.097656 -0.898438 18.609375 -0.359375 C 17.128906 0.179688 15.535156 0.453125 13.828125 0.453125 C 12.117188 0.453125 10.515625 0.179688 9.015625 -0.359375 C 7.523438 -0.898438 6.210938 -1.691406 5.078125 -2.734375 C 3.941406 -3.773438 3.054688 -5.03125 2.421875 -6.5 C 1.785156 -7.976562 1.46875 -9.632812 1.46875 -11.46875 C 1.46875 -13.300781 1.785156 -14.953125 2.421875 -16.421875 C 3.054688 -17.898438 3.941406 -19.15625 5.078125 -20.1875 C 6.210938 -21.226562 7.523438 -22.019531 9.015625 -22.5625 C 10.515625 -23.113281 12.117188 -23.390625 13.828125 -23.390625 Z M 15.140625 -0.125 C 16.648438 -0.125 17.960938 -0.519531 19.078125 -1.3125 C 20.203125 -2.113281 21.070312 -3.21875 21.6875 -4.625 C 22.300781 -6.039062 22.609375 -7.675781 22.609375 -9.53125 C 22.609375 -11.175781 22.351562 -12.789062 21.84375 -14.375 C 21.34375 -15.957031 20.644531 -17.378906 19.75 -18.640625 C 18.863281 -19.910156 17.800781 -20.921875 16.5625 -21.671875 C 15.332031 -22.429688 13.972656 -22.8125 12.484375 -22.8125 C 10.972656 -22.8125 9.660156 -22.410156 8.546875 -21.609375 C 7.429688 -20.804688 6.5625 -19.707031 5.9375 -18.3125 C 5.320312 -16.914062 5.015625 -15.289062 5.015625 -13.4375 C 5.015625 -11.769531 5.265625 -10.148438 5.765625 -8.578125 C 6.265625 -7.003906 6.960938 -5.578125 7.859375 -4.296875 C 8.753906 -3.023438 9.820312 -2.007812 11.0625 -1.25 C 12.3125 -0.5 13.671875 -0.125 15.140625 -0.125 Z M 15.140625 -0.125 "/></g></g><g style="fill:#785d56;fill-opacity:1;"><g transform="translate(225.517399, 249.340281)"><path style="stroke:none" d="M 11.859375 0.453125 C 11.023438 0.453125 10.097656 0.328125 9.078125 0.078125 C 8.066406 -0.171875 7.097656 -0.625 6.171875 -1.28125 C 5.242188 -1.9375 4.476562 -2.863281 3.875 -4.0625 C 3.28125 -5.257812 2.984375 -6.800781 2.984375 -8.6875 L 2.984375 -21.0625 C 2.984375 -21.65625 2.734375 -22.066406 2.234375 -22.296875 C 1.742188 -22.523438 1.160156 -22.679688 0.484375 -22.765625 L 0.484375 -22.9375 L 8.8125 -22.9375 L 8.8125 -22.765625 C 8.132812 -22.679688 7.550781 -22.523438 7.0625 -22.296875 C 6.570312 -22.066406 6.328125 -21.65625 6.328125 -21.0625 L 6.328125 -8.125 C 6.328125 -6.664062 6.546875 -5.445312 6.984375 -4.46875 C 7.421875 -3.5 7.976562 -2.726562 8.65625 -2.15625 C 9.332031 -1.59375 10.046875 -1.1875 10.796875 -0.9375 C 11.546875 -0.6875 12.238281 -0.5625 12.875 -0.5625 C 13.550781 -0.5625 14.285156 -0.695312 15.078125 -0.96875 C 15.878906 -1.238281 16.632812 -1.671875 17.34375 -2.265625 C 18.0625 -2.867188 18.640625 -3.65625 19.078125 -4.625 C 19.523438 -5.601562 19.75 -6.789062 19.75 -8.1875 L 19.75 -17.109375 C 19.75 -18.585938 19.628906 -19.722656 19.390625 -20.515625 C 19.148438 -21.316406 18.820312 -21.875 18.40625 -22.1875 C 18 -22.507812 17.507812 -22.691406 16.9375 -22.734375 L 16.9375 -22.90625 L 22.9375 -22.90625 L 22.9375 -22.734375 C 22.5 -22.691406 22.085938 -22.566406 21.703125 -22.359375 C 21.328125 -22.148438 21.023438 -21.703125 20.796875 -21.015625 C 20.566406 -20.328125 20.453125 -19.242188 20.453125 -17.765625 L 20.453125 -8.75 C 20.453125 -6.675781 20.0625 -4.957031 19.28125 -3.59375 C 18.507812 -2.226562 17.472656 -1.210938 16.171875 -0.546875 C 14.867188 0.117188 13.429688 0.453125 11.859375 0.453125 Z M 11.859375 0.453125 "/></g></g></g></svg>