<svg xmlns="http://www.w3.org/2000/svg" xmlns:xlink="http://www.w3.org/1999/xlink" width="500" zoomAndPan="magnify" viewBox="0 0 375 374.999991" height="500" preserveAspectRatio="xMidYMid meet" version="1.2"><defs><clipPath id="7513d39ec4"><path d="M 191 129.808594 L 243 129.808594 L 243 237 L 191 237 Z M 191 129.808594 "/></clipPath><clipPath id="1fe35fbe34"><path d="M 203 143 L 262.5 143 L 262.5 245.308594 L 203 245.308594 Z M 203 143 "/></clipPath><clipPath id="96a77a472f"><path d="M 132 129.808594 L 184 129.808594 L 184 237 L 132 237 Z M 132 129.808594 "/></clipPath><clipPath id="c56ec87b73"><path d="M 112.5 143 L 172 143 L 172 245.308594 L 112.5 245.308594 Z M 112.5 143 "/></clipPath></defs><g id="e3e074360f"><g clip-rule="nonzero" clip-path="url(#7513d39ec4)"><path style=" stroke:none;fill-rule:nonzero;fill:#d9d9d9;fill-opacity:1;" d="M 191.195312 150.570312 C 191.195312 150.570312 203.789062 137.304688 212.273438 133.847656 C 220.753906 130.386719 242.09375 129.824219 242.09375 129.824219 L 242.09375 215.984375 C 242.09375 215.984375 222.699219 216.972656 214.214844 220.429688 C 205.734375 223.886719 191.195312 236.730469 191.195312 236.730469 Z M 191.195312 150.570312 "/></g><path style=" stroke:none;fill-rule:nonzero;fill:#a6a6a6;fill-opacity:1;" d="M 252.78125 136.171875 C 252.78125 136.171875 249.492188 136.265625 245.007812 136.578125 L 245.007812 219.371094 C 245.007812 219.371094 225.613281 220.355469 217.128906 223.8125 C 212.714844 225.613281 202.300781 231.644531 197.511719 235.394531 L 195.082031 243.078125 C 195.082031 243.078125 211.5625 234.046875 220.042969 230.589844 C 228.527344 227.132812 252.78125 222.332031 252.78125 222.332031 Z M 252.78125 136.171875 "/><g clip-rule="nonzero" clip-path="url(#1fe35fbe34)"><path style=" stroke:none;fill-rule:nonzero;fill:#545454;fill-opacity:1;" d="M 262.496094 143.367188 C 262.496094 143.367188 260.117188 143.4375 256.667969 143.648438 L 256.667969 225.722656 C 256.667969 225.722656 237.273438 226.707031 228.789062 230.164062 C 223.75 232.21875 212.222656 236.304688 207.226562 240.324219 L 203.339844 245.191406 C 203.339844 245.191406 226.136719 237.433594 234.617188 233.976562 C 243.101562 230.519531 262.496094 229.53125 262.496094 229.53125 Z M 262.496094 143.367188 "/></g><g clip-rule="nonzero" clip-path="url(#96a77a472f)"><path style=" stroke:none;fill-rule:nonzero;fill:#d9d9d9;fill-opacity:1;" d="M 183.804688 150.570312 C 183.804688 150.570312 171.210938 137.304688 162.726562 133.847656 C 154.246094 130.386719 132.90625 129.824219 132.90625 129.824219 L 132.90625 215.984375 C 132.90625 215.984375 152.300781 216.972656 160.785156 220.429688 C 169.265625 223.886719 183.804688 236.730469 183.804688 236.730469 Z M 183.804688 150.570312 "/></g><path style=" stroke:none;fill-rule:nonzero;fill:#a6a6a6;fill-opacity:1;" d="M 122.21875 136.171875 C 122.21875 136.171875 125.503906 136.265625 129.988281 136.578125 L 129.988281 219.371094 C 129.988281 219.371094 149.386719 220.355469 157.867188 223.8125 C 162.285156 225.613281 172.695312 231.644531 177.488281 235.394531 L 179.917969 243.078125 C 179.917969 243.078125 163.4375 234.046875 154.953125 230.589844 C 146.472656 227.132812 122.21875 222.335938 122.21875 222.335938 Z M 122.21875 136.171875 "/><g clip-rule="nonzero" clip-path="url(#c56ec87b73)"><path style=" stroke:none;fill-rule:nonzero;fill:#545454;fill-opacity:1;" d="M 112.503906 143.367188 C 112.503906 143.367188 114.882812 143.4375 118.332031 143.648438 L 118.332031 225.722656 C 118.332031 225.722656 137.726562 226.707031 146.210938 230.164062 C 151.25 232.21875 162.777344 236.304688 167.773438 240.324219 L 171.660156 245.191406 C 171.660156 245.191406 148.863281 237.433594 140.378906 233.976562 C 131.898438 230.519531 112.503906 229.53125 112.503906 229.53125 Z M 112.503906 143.367188 "/></g></g></svg>